<svg version="1" xmlns="http://www.w3.org/2000/svg" width="933.333" height="933.333" viewBox="0 0 700.000000 700.000000"><path d="M293 33.2c-31.1 18.1-57.6 33.4-59 34.2-1.4.7-13.5 7.7-26.8 15.5-13.4 7.8-26.5 15.4-29.2 16.9-2.6 1.5-16.8 9.7-31.4 18.2-14.7 8.5-28.3 16.4-30.4 17.6-6.3 3.5-36.6 21.1-53 30.7l-15.7 9.2v348.9l6 3.6c3.3 2 8.3 4.9 11 6.4 4.8 2.7 71 41 90 52.1 5 2.9 23.6 13.7 41.5 24s33.7 19.6 35.2 20.6c1.5 1.1 2.9 1.9 3.2 1.9.2 0 9.8 5.5 21.3 12.1 11.4 6.7 22.3 13 24.1 14.1 1.8 1 9 5.1 16 9.2 7 4 15.2 8.7 18.2 10.5 3 1.7 6.2 3.5 7 4 9.9 6 28.6 16.4 29.5 16.4.6 0 8.3-4.2 17.1-9.3 26.8-15.6 33.6-19.6 42.9-24.9 5-2.8 9.7-5.6 10.5-6.1 3-1.8 49.6-28.8 53-30.8 1.9-1 6-3.4 9-5.2 5.3-3.2 21.3-12.5 27.5-16 1.7-1 12.9-7.5 25-14.5s31.2-18.1 42.5-24.7c11.3-6.5 21.2-12.3 22-12.8 1.4-.9 16.3-9.5 22.5-13 11-6.3 28.1-16.4 28.8-16.9.5-.5-59.8-183.3-64.8-196.3-.5-1.2-.1-2 1.1-2.4 16.9-5.8 28.1-18.8 33.6-39.1 1.5-5.9 2.1-11.3 2.3-21.9.5-26.9-5.1-50.2-19-78.9-11.1-22.9-24.8-41.9-42.2-58.6-12.5-11.9-16.6-14.7-50.3-34.1-15.1-8.7-28.2-16.2-29-16.7-1.8-1.1-21-12.2-29-16.7-5.2-3-33.3-19.2-76-43.9-10.7-6.2-21.5-12.4-24-13.7L349.5.4 293 33.2z"/></svg>