<svg xmlns="http://www.w3.org/2000/svg" width="20" height="20" viewBox="0 0 20 20">
  <defs>
    <style>
      .cls-1 {
        fill: #b4e13d;
        fill-rule: evenodd;
      }
    </style>
  </defs>
  <path id="calendar" class="cls-1" d="M1526.07,5929.76a2.277,2.277,0,0,0,2.06,2.24h15.96a2.067,2.067,0,0,0,1.9-2.24c0-.39-0.03-12.41-0.03-13.06,0-2.08-.28-2.71-3.99-2.71v-2h-1.99v2h-7.99v-2H1530v2h-2a2.006,2.006,0,0,0-2,2Zm17.9-.77a1,1,0,0,1-1,1H1529a1,1,0,0,1-1-1v-7h15.97v7Zm0-9H1528v-3.03a0.971,0.971,0,0,1,.97-0.97H1530v2h1.99v-2h7.99v2h1.99v-2h1a1,1,0,0,1,1,1v3Z" transform="translate(-1526 -5912)"/>
</svg>
