<svg xmlns="http://www.w3.org/2000/svg" width="15" height="15" viewBox="0 0 15 15">
  <defs>
    <style>
      .cls-1 {
        fill: #fff;
        fill-rule: evenodd;
      }
    </style>
  </defs>
  <path id="call" class="cls-1" d="M1021.72,6170.01c-0.46,1.41-2.28,2.11-3.57,1.99a11.433,11.433,0,0,1-5.16-2.13,16.848,16.848,0,0,1-5.34-6.37,5.328,5.328,0,0,1,.22-5.54,2.117,2.117,0,0,1,1.69-.95c1.03-.05,1.17.54,1.52,1.46a19.618,19.618,0,0,1,.81,2.09c0.37,1.33-.91,1.38-1.08,2.47-0.1.68,0.73,1.6,1.11,2.08a9.963,9.963,0,0,0,2.61,2.41c0.56,0.35,1.48,1,2.14.64,1-.55.91-2.24,2.31-1.67,0.73,0.3,1.43.73,2.13,1.1,1.07,0.58,1.02,1.18.61,2.42C1021.42,6170.94,1022.03,6169.08,1021.72,6170.01Z" transform="translate(-1007 -6157)"/>
</svg>
