<svg xmlns="http://www.w3.org/2000/svg" width="20" height="20" viewBox="0 0 20 20">
  <defs>
    <style>
      .cls-1 {
        fill-rule: evenodd;
      }
    </style>
  </defs>
  <path id="cup" class="cls-1" d="M1307,390.986v-2h-2v-2h1.23a2.007,2.007,0,0,0,1.99-1.75l0.03-.248h2.31a2,2,0,0,0,1.9-1.367l1.55-4.629H1309l1-8h-12.01l1,8h-5l1.54,4.629a2.012,2.012,0,0,0,1.9,1.367h2.31l0.04,0.248a1.99,1.99,0,0,0,1.98,1.75H1303v2h-2v2h6Zm-9.9-8.678-0.44-1.316h2.58l0.25,2h-1.44A1,1,0,0,1,1297.1,382.308Zm4.54,1.806L1300.24,373h7.51l-1.39,11.117a1,1,0,0,1-.99.876h-2.74A0.992,0.992,0,0,1,1301.64,384.114Zm6.86-1.123,0.25-2h2.59l-0.44,1.316a1,1,0,0,1-.95.683h-1.45Z" transform="translate(-1294 -371)"/>
</svg>
