<svg xmlns="http://www.w3.org/2000/svg" width="20" height="20" viewBox="0 0 20 20">
  <defs>
    <style>
      .cls-1 {
        fill-rule: evenodd;
      }
    </style>
  </defs>
  <path id="emoji_happy_circle" class="cls-1" d="M1044,513.01a10,10,0,1,0,9.99,10A10,10,0,0,0,1044,513.01Zm0,18a8,8,0,1,1,7.99-8A8.009,8.009,0,0,1,1044,531.005Zm4.89-5.54c-1.01,5.136-8.78,5.032-9.78-.1a0.836,0.836,0,0,1,.99-0.939h0.01a0.93,0.93,0,0,1,.98.7c0.69,2.923,5.12,2.819,5.81-.1a0.857,0.857,0,0,1,.98-0.6h0.02A0.912,0.912,0,0,1,1048.89,525.465Zm-7.89-2.043h-2a1,1,0,0,1-1-1v-2a1,1,0,0,1,1-1h2a1,1,0,0,1,1,1v2A1,1,0,0,1,1041,523.422Zm8.99-3v2a0.994,0.994,0,0,1-1,1h-2a1,1,0,0,1-1-1v-2a1,1,0,0,1,1-1h2A1,1,0,0,1,1049.99,520.423Z" transform="translate(-1034 -513)"/>
</svg>
