<?xml version="1.0" encoding="UTF-8"?>
<svg width="53px" height="60px" viewBox="0 0 53 60" version="1.1" xmlns="http://www.w3.org/2000/svg" xmlns:xlink="http://www.w3.org/1999/xlink">
    <!-- Generator: Sketch 48.1 (47250) - http://www.bohemiancoding.com/sketch -->
    <title>icn_logo_mono</title>
    <desc>Created with Sketch.</desc>
    <defs></defs>
    <g id="Контакты-1280" stroke="none" stroke-width="1" fill="none" fill-rule="evenodd" transform="translate(-614.000000, -681.000000)">
        <g id="icn_logo_mono" transform="translate(614.000000, 681.000000)" fill="#FFFFFF">
            <path d="M52.9576,44.98125 L47.1889286,28.07025 C49.2044429,27.58275 50.5203571,25.64475 50.5203571,22.61025 C50.5203571,17.652 47.0783857,11.721 42.7429857,9.27375 L26.4939429,0.075 L26.4939429,0 L0,15 L0,45 L26.4947,60 L52.9242857,45.03525 L52.9878857,45.072 L52.9674429,45.01125 L52.9886429,44.9985 L52.9576,44.98125 Z M26.4939429,1.8285 L26.4939429,29.08575 L1.61347143,43.1715 L1.61347143,15.91425 L26.4939429,1.8285 Z M26.4939429,58.17 L2.42285714,44.5425 L27.3010571,30.4575 L51.3161143,44.11875 L26.4939429,58.17 Z" id="Shape_21_copy"></path>
        </g>
    </g>
</svg>