<svg xmlns="http://www.w3.org/2000/svg" width="20.03" height="20" viewBox="0 0 20.03 20">
  <defs>
    <style>
      .cls-1 {
        fill: #b4e13d;
        fill-rule: evenodd;
      }
    </style>
  </defs>
  <path id="profile_round" class="cls-1" d="M1545.97,6071.63a9.523,9.523,0,0,0-6.13-6.96,5.943,5.943,0,0,0,2.22-5.61,6.144,6.144,0,0,0-12.19.93,5.969,5.969,0,0,0,2.29,4.68,9.491,9.491,0,0,0-6.12,6.96,1.994,1.994,0,0,0,2.01,2.36h15.9A2,2,0,0,0,1545.97,6071.63Zm-14.06-11.64a4.091,4.091,0,1,1,4.09,4A4.049,4.049,0,0,1,1531.91,6059.99Zm10.66,12h-13.14a1,1,0,0,1-.96-1.34,8.414,8.414,0,0,1,15.06,0A0.994,0.994,0,0,1,1542.57,6071.99Z" transform="translate(-1526 -6054)"/>
</svg>
