<svg xmlns="http://www.w3.org/2000/svg" width="20" height="20" viewBox="0 0 20 20">
  <defs>
    <style>
      .cls-1 {
        fill: #b4e13d;
        fill-rule: evenodd;
      }
    </style>
  </defs>
  <path id="umbrella" class="cls-1" d="M1935.53,6054.01c-0.08,0-.16-0.01-0.24-0.01-0.1,0-.19-0.02-0.29-0.02s-0.18.02-.27,0.02-0.19.01-.28,0.01a10,10,0,0,0-9.46,9.98c0,0.34.02,0.68,0.05,1H1934V6072h-2v-2h-2v4h6v-9.01h8.96a6.672,6.672,0,0,0,.05-1A10.007,10.007,0,0,0,1935.53,6054.01Zm-5.04,8.98h-3.43a8.035,8.035,0,0,1,5.63-6.66A14.978,14.978,0,0,0,1930.49,6062.99Zm5.51,0h-3.51a14.282,14.282,0,0,1,2.5-6.5,14.324,14.324,0,0,1,2.52,6.5H1936Zm3.51,0a16.577,16.577,0,0,0-2.21-6.66,8.241,8.241,0,0,1,5.64,6.66h-3.43Z" transform="translate(-1925 -6054)"/>
</svg>
