<svg xmlns="http://www.w3.org/2000/svg" width="20" height="20" viewBox="0 0 20 20"><defs><style>.cls-1{fill-rule:evenodd}</style></defs><path id="cup" class="cls-1" d="M1307 390.986v-2h-2v-2h1.23a2.007 2.007 0 0 0 1.99-1.75l.03-.248h2.31a2 2 0 0 0 1.9-1.367l1.55-4.629H1309l1-8h-12.01l1 8h-5l1.54 4.629a2.012 2.012 0 0 0 1.9 1.367h2.31l.04.248a1.99 1.99 0 0 0 1.98 1.75h1.24v2h-2v2h6zm-9.9-8.678l-.44-1.316h2.58l.25 2h-1.44a1 1 0 0 1-.95-.684zm4.54 1.806l-1.4-11.114h7.51l-1.39 11.117a1 1 0 0 1-.99.876h-2.74a.992.992 0 0 1-.99-.879zm6.86-1.123l.25-2h2.59l-.44 1.316a1 1 0 0 1-.95.683h-1.45z" transform="translate(-1294 -371)"/></svg>