<svg xmlns="http://www.w3.org/2000/svg" width="20" height="20" viewBox="0 0 20 20"><defs><style>.cls-1{fill-rule:evenodd}</style></defs><path id="emoji_happy_circle" class="cls-1" d="M1044 513.01a10 10 0 1 0 9.99 10 10 10 0 0 0-9.99-10zm0 18a8 8 0 1 1 7.99-8 8.009 8.009 0 0 1-7.99 7.995zm4.89-5.54c-1.01 5.136-8.78 5.032-9.78-.1a.836.836 0 0 1 .99-.939h.01a.93.93 0 0 1 .98.7c.69 2.923 5.12 2.819 5.81-.1a.857.857 0 0 1 .98-.6h.02a.912.912 0 0 1 .99 1.034zm-7.89-2.043h-2a1 1 0 0 1-1-1v-2a1 1 0 0 1 1-1h2a1 1 0 0 1 1 1v2a1 1 0 0 1-1 .995zm8.99-3v2a.994.994 0 0 1-1 1h-2a1 1 0 0 1-1-1v-2a1 1 0 0 1 1-1h2a1 1 0 0 1 1 .996z" transform="translate(-1034 -513)"/></svg>