<svg xmlns="http://www.w3.org/2000/svg" width="10.38" height="13.312" viewBox="0 0 10.38 13.312"><defs><style>.cls-1{fill-rule:evenodd}</style></defs><path id="rub" class="cls-1" d="M1948.85 521.157a4.009 4.009 0 0 0 1.3-3.05 4.231 4.231 0 0 0-1.31-3.116 4.319 4.319 0 0 0-3.18-1.292h-4.44v6.385h-1.43v2.3h1.43v1.045h-1.43v1.671h1.43v1.9h2.62v-1.9h3.7v-1.673h-3.7v-1.045h1.82a4.448 4.448 0 0 0 3.19-1.225zm-3.19-5.006a1.793 1.793 0 0 1 1.34.56 1.933 1.933 0 0 1 .54 1.4 1.964 1.964 0 0 1-.54 1.406 1.774 1.774 0 0 1-1.34.571h-1.82v-3.933h1.82z" transform="translate(-1939.78 -513.688)"/></svg>