<svg xmlns="http://www.w3.org/2000/svg" width="20" height="20" viewBox="0 0 20 20"><defs><style>.cls-1{fill:#b4e13d;fill-rule:evenodd}</style></defs><path id="truck" class="cls-1" d="M1939 5916.99v-5h-13.99v17h1.93a3.977 3.977 0 0 0 7.71 0h2.52a3 3 0 0 0 6 0h1.83v-12h-6zm-6.48 12a1.992 1.992 0 0 1-1.72 1 1.968 1.968 0 0 1-1.72-1 1.88 1.88 0 0 1-.28-1 1.906 1.906 0 0 1 .28-1 1.988 1.988 0 0 1 1.72-1 2.029 2.029 0 0 1 2 2 1.974 1.974 0 0 1-.28 1zm4.48-2h-2.35a4.076 4.076 0 0 0-3.94-3c-1.61 0-2.7.96-3.7 2.33v-12.33h9.99v13zm3.17 3a1 1 0 1 1 1-1 1 1 0 0 1-1 1zm2.83-3h-.61a3.163 3.163 0 0 0-2.3-1 2.341 2.341 0 0 0-1.09.18v-1.18h4v2zm0-4h-4v-4h4v4z" transform="translate(-1925 -5912)"/></svg>