<svg xmlns="http://www.w3.org/2000/svg" width="20" height="20" viewBox="0 0 20 20"><defs><style>.cls-1{fill:#b4e13d;fill-rule:evenodd}</style></defs><path id="umbrella" class="cls-1" d="M1935.53 6054.01c-.08 0-.16-.01-.24-.01-.1 0-.19-.02-.29-.02s-.18.02-.27.02-.19.01-.28.01a10 10 0 0 0-9.46 9.98c0 .34.02.68.05 1h8.96v7.01h-2v-2h-2v4h6v-9.01h8.96a6.672 6.672 0 0 0 .05-1 10.007 10.007 0 0 0-9.48-9.98zm-5.04 8.98h-3.43a8.035 8.035 0 0 1 5.63-6.66 14.978 14.978 0 0 0-2.2 6.66zm5.51 0h-3.51a14.282 14.282 0 0 1 2.5-6.5 14.324 14.324 0 0 1 2.52 6.5H1936zm3.51 0a16.577 16.577 0 0 0-2.21-6.66 8.241 8.241 0 0 1 5.64 6.66h-3.43z" transform="translate(-1925 -6054)"/></svg>