<?xml version="1.0" standalone="no"?>
<!DOCTYPE svg PUBLIC "-//W3C//DTD SVG 20010904//EN"
 "http://www.w3.org/TR/2001/REC-SVG-20010904/DTD/svg10.dtd">
<svg version="1.0" xmlns="http://www.w3.org/2000/svg"
 width="700.000000pt" height="700.000000pt" viewBox="0 0 700.000000 700.000000"
 preserveAspectRatio="xMidYMid meet">
<metadata>
Created by potrace 1.11, written by Peter Selinger 2001-2013
</metadata>
<g transform="translate(0.000000,700.000000) scale(0.100000,-0.100000)"
fill="#000000" stroke="none">
<path d="M2930 6668 c-311 -181 -576 -334 -590 -342 -14 -7 -135 -77 -268
-155 -134 -78 -265 -154 -292 -169 -26 -15 -168 -97 -314 -182 -147 -85 -283
-164 -304 -176 -63 -35 -366 -211 -530 -307 l-157 -92 0 -1744 0 -1745 60 -36
c33 -20 83 -49 110 -64 48 -27 710 -410 900 -521 50 -29 236 -137 415 -240
179 -103 337 -196 352 -206 15 -11 29 -19 32 -19 2 0 98 -55 213 -121 114 -67
223 -130 241 -141 18 -10 90 -51 160 -92 70 -40 152 -87 182 -105 30 -17 62
-35 70 -40 99 -60 286 -164 295 -164 6 0 83 42 171 93 268 156 336 196 429
249 50 28 97 56 105 61 30 18 496 288 530 308 19 10 60 34 90 52 53 32 213
125 275 160 17 10 129 75 250 145 121 70 312 181 425 247 113 65 212 123 220
128 14 9 163 95 225 130 110 63 281 164 288 169 5 5 -598 1833 -648 1963 -5
12 -1 20 11 24 169 58 281 188 336 391 15 59 21 113 23 219 5 269 -51 502
-190 789 -111 229 -248 419 -422 586 -125 119 -166 147 -503 341 -151 87 -282
162 -290 167 -18 11 -210 122 -290 167 -52 30 -333 192 -760 439 -107 62 -215
124 -240 137 l-45 24 -565 -328z"/>
</g>
</svg>
